<svg xmlns="http://www.w3.org/2000/svg" width="32" height="32" viewBox="0 0 93.241 93.241">
<g>
	<path d="M53.241,0.852c-12.775,0-24.143,5.997-31.466,15.32c1.646,1.252,3.012,2.914,4.115,4.51   c6.198-8.382,16.148-13.83,27.351-13.83c18.748,0,34,15.253,34,34c0,13.665-8.106,25.464-19.76,30.863   c1.313,1.58,2.463,3.339,3.117,5.185c13.398-6.463,22.643-20.176,22.643-36.048C93.241,18.761,75.333,0.852,53.241,0.852z" fill="#fff"/>
	<path d="M61.726,71.493c-2.27-2.06-7.115-6.052-10.771-5.933c-1.197,0.039-2.239,0.512-3.185,1.091V66.65   c0,0-0.042,0.027-0.112,0.072c-0.211,0.132-0.419,0.27-0.619,0.413l0.002,0.002c-0.655,0.455-1.685,1.207-2.848,2.204l-0.011-0.011 c-0.038,0.032-0.078,0.066-0.117,0.097c-0.242,0.207-0.488,0.438-0.736,0.678c-0.009,0.008-0.018,0.014-0.024,0.022   c-0.014,0.011-0.021,0.022-0.033,0.034c-1.358,1.321-2.814,2.956-4.674,3.128c-3.419,0.313-6.699-2.461-8.468-4.083   c-3.985-3.65-7.577-8.087-10.423-13.005c-1.353-2.335-3.029-5.55-1.978-8.785c0.522-1.616,2.089-2.554,3.523-3.491   c0.004-0.001,0.005-0.003,0.007-0.003c1.068-0.633,2.369-1.656,3.253-2.385c1.507-1.219,3.214-2.75,3.489-4.974   c0.41-3.263-1.807-7.711-3.548-10.658c-1.563-2.644-4.275-7.165-7.551-7.707c-1.521-0.252-2.792,0.4-3.92,1.278   c-0.763,0.561-2.875,2.144-4.685,3.752c-0.061,0.051-0.12,0.103-0.178,0.155c-0.278,0.252-0.553,0.504-0.809,0.751   C7.31,24.137,7.31,24.138,7.31,24.138C3.256,28.059-0.041,33.584,0,41.305C0.059,51.917,5.205,60.29,9.858,66.879   c4.931,6.983,11.324,14.144,18.808,19.255c4.171,2.847,8.339,5.151,14.543,6.001c6.794,0.932,11.643-0.797,15.87-3.69   c0.025-0.017,0.047-0.026,0.071-0.042c2.4-1.601,4.375-3.249,5.506-4.243c0.33-0.274,0.656-0.563,0.961-0.873   c0.038-0.036,0.066-0.063,0.066-0.063l-0.003-0.004c0.656-0.682,1.26-1.463,1.439-2.499C67.672,77.549,63.996,73.561,61.726,71.493 z" fill="#fff"/>
	<path d="M46.298,38.701c-0.483,0.618-1.119,1.28-1.906,1.986c-0.789,0.706-1.76,1.524-2.913,2.454 c-1.295,1.047-2.383,2-3.266,2.859c-0.883,0.859-1.559,1.642-2.029,2.348c-1.013,1.53-1.519,3.372-1.519,5.525H52.6v-4.484H41.232   c0.306-0.353,0.774-0.814,1.404-1.386c0.629-0.57,1.378-1.227,2.25-1.968c1.471-1.236,2.715-2.345,3.732-3.328   c1.019-0.982,1.78-1.827,2.286-2.533c0.541-0.765,0.947-1.574,1.219-2.427c0.27-0.853,0.405-1.78,0.405-2.78   c0-1.094-0.188-2.109-0.565-3.045c-0.377-0.936-0.925-1.748-1.642-2.436c-0.719-0.688-1.606-1.229-2.666-1.624   c-1.059-0.394-2.266-0.591-3.618-0.591c-1.26,0-2.41,0.207-3.45,0.618c-1.043,0.412-1.945,0.995-2.71,1.747   c-0.766,0.753-1.38,1.665-1.845,2.736c-0.465,1.071-0.75,2.266-0.856,3.583h4.925c0.047-0.765,0.185-1.439,0.416-2.021   c0.229-0.583,0.514-1.068,0.855-1.456c0.341-0.389,0.734-0.68,1.183-0.874c0.446-0.194,0.918-0.291,1.412-0.291   c1.176,0,2.083,0.315,2.718,0.944c0.636,0.63,0.953,1.509,0.953,2.639c0,0.718-0.103,1.377-0.308,1.977   C47.124,37.474,46.78,38.083,46.298,38.701z" fill="#fff"/>
	<path d="M70.446,53.873v-5.878h3.318v-4.342h-3.318V27.36h-3.76L55.123,44.2v3.795h10.52v5.878H70.446z M60.384,43.652l5.26-7.855 v7.855H60.384z" fill="#fff"/>
</g>
</svg>
